<svg xmlns="http://www.w3.org/2000/svg" xmlns:svg="http://www.w3.org/2000/svg" xmlns:xlink="http://www.w3.org/1999/xlink" version="1.0" height="790.0000000000008pt" width="890pt" viewBox="405 46.999999999999204 898 796.0000000000008" ><defs><style type="text/css">
            @font-face {
                font-family: 'lt_regular';
                src: url('https://app.creately.com/d/assets/fonts/lato/lt-regular-webfont.woff2') format('woff2'),
                    url('https://app.creately.com/d/assets/fonts/lato/lt-regular-webfont.woff') format('woff');
                font-weight: normal;
                font-style: normal;
            }
            @font-face {
                font-family: 'noto_regular';
                src: url('https://app.creately.com/d/assets/fonts/noto/noto-regular.woff') format('woff'),
                     url('https://app.creately.com/d/assets/fonts/noto/noto-regular.woff2') format('woff2');
                font-weight: normal;
                font-style: normal;
            }
        p {
            margin: 0;
        }
        </style></defs><defs>
        <style>
            span{ display: inline-block; }
            
        </style>
        
        </defs><g id="RiMzcvhbaE1"><g transform="translate(510.00000000000017 220)"><path d="M 249.99999999999986,0 L 0,190.0000000000001 L 94.99999999999994,500.0000000000003 L 404.9999999999998,500.0000000000003 L 499.9999999999997,190.0000000000001 L 249.99999999999986,0 Z" fill="rgb(255,255,255)" stroke="#D4C6B2" stroke-width="2" stroke-linecap="round" stroke-linejoin="round" stroke-dasharray="0 0"/></g><g transform="translate(760, 461.0000000000001) rotate(0, 0, 9)" width="0" height="18"><text text-decoration="none" x="0" fill="#4b4b4b" font-size="10pt" font-family="noto_regular"  y="15.333333671092987"></text></g></g><g id="uIpA4wGSgH6"><g transform="translate(560.0000000000002 270)"><path d="M 199.99999999999994,0 L 0,152.00000000000006 L 75.99999999999999,400.00000000000017 L 323.99999999999994,400.00000000000017 L 399.9999999999999,152.00000000000006 L 199.99999999999994,0 Z" fill="rgb(255,255,255)" stroke="#D4C6B2" stroke-width="2" stroke-linecap="round" stroke-linejoin="round" stroke-dasharray="0 0"/></g></g><g id="maFLGjgfGmC"><g transform="translate(610.0000000000002 320)"><path d="M 150.00000000000003,0 L 0,117.79999999999998 L 57.000000000000014,309.99999999999994 L 243.00000000000006,309.99999999999994 L 300.00000000000006,117.79999999999998 L 150.00000000000003,0 Z" fill="rgb(255,255,255)" stroke="#D4C6B2" stroke-width="2" stroke-linecap="round" stroke-linejoin="round" stroke-dasharray="0 0"/></g></g><g id="In8jcS8ZKnG"><g transform="translate(660.0000000000002 380)"><path d="M 100.00000000000017,0 L 0,76.00000000000003 L 38.000000000000064,200.00000000000009 L 162.00000000000028,200.00000000000009 L 200.00000000000034,76.00000000000003 L 100.00000000000017,0 Z" fill="rgb(255,255,255)" stroke="#D4C6B2" stroke-width="2" stroke-linecap="round" stroke-linejoin="round" stroke-dasharray="0 0"/></g></g><g id="HIff4RzQ3FM"><g transform="translate(710 440)"><path d="M 50,0 L 0,36.1 L 19,95 L 81,95 L 100,36.1 L 50,0 Z" fill="rgb(255,255,255)" stroke="#D4C6B2" stroke-width="2" stroke-linecap="round" stroke-linejoin="round" stroke-dasharray="0 0"/></g></g><g id="0voMnhTlk5W"><g transform="translate(579.3503418805577 746.1046279958598) rotate(-56.06297541083811)"><path d="M 0,5 L 305.0344566198477,5" fill="rgb(255,255,255)" stroke="#D4C6B2" stroke-width="2" stroke-linecap="round" stroke-linejoin="round" stroke-dasharray="0 0"/><rect x="0" y="0" width="305.0344566198477" height="10" fill="rgba(255,255,255,0.01)" stroke="rgba(255,255,255,0.01)" stroke-width="2" stroke-linecap="round" stroke-linejoin="round" stroke-dasharray="0 0"/></g><g transform="translate(676.942641025762, 627.9426710092968) rotate(-56.06, 0, 0)" width="0" height="36"><text text-decoration="none" x="0" fill="#D4C6B2" font-size="10pt" font-family="lt_regular"  y="14.666666984558105"></text><text text-decoration="none" x="0" fill="#4b4b4b" font-size="10pt" font-family="noto_regular"  y="33.33333492279053"></text></g></g><g id="S1Ng9JhMbYp"><g transform="translate(938.2589991489792 748.4958913000938) rotate(-125.8898291973159)"><path d="M 0,5 L 311.7392004906316,5" fill="rgb(255,255,255)" stroke="#D4C6B2" stroke-width="2" stroke-linecap="round" stroke-linejoin="round" stroke-dasharray="0 0"/><rect x="0" y="0" width="311.7392004906316" height="10" fill="rgba(255,255,255,0.01)" stroke="rgba(255,255,255,0.01)" stroke-width="2" stroke-linecap="round" stroke-linejoin="round" stroke-dasharray="0 0"/></g><g transform="translate(859.0359745750841, 613.4253739471253) rotate(-125.89, 0, 0)" width="0" height="36"><text text-decoration="none" x="0" fill="#D4C6B2" font-size="10pt" font-family="lt_regular"  y="14.666666984558105"></text><text text-decoration="none" x="0" fill="#4b4b4b" font-size="10pt" font-family="noto_regular"  y="33.33333492279053"></text></g></g><g id="KkdZ1u0q7Eh"><g transform="translate(750 490.0000000000001) rotate(-90)"><path d="M 0,5 L 320.00000000000017,5" fill="rgb(255,255,255)" stroke="#D4C6B2" stroke-width="2" stroke-linecap="round" stroke-linejoin="round" stroke-dasharray="0 0"/><rect x="0" y="0" width="320.00000000000017" height="10" fill="rgba(255,255,255,0.01)" stroke="rgba(255,255,255,0.01)" stroke-width="2" stroke-linecap="round" stroke-linejoin="round" stroke-dasharray="0 0"/></g><g transform="translate(765, 330) rotate(-90, 0, 0)" width="0" height="36"><text text-decoration="none" x="0" fill="#D4C6B2" font-size="10pt" font-family="lt_regular"  y="14.666666984558105"></text><text text-decoration="none" x="0" fill="#4b4b4b" font-size="10pt" font-family="noto_regular"  y="33.33333492279053"></text></g></g><g id="WcTHakFJxmI"><g transform="translate(750 490) rotate(-19.850758684004383)"><path d="M 0,5 L 335.26057529942887,5" fill="rgb(255,255,255)" stroke="#D4C6B2" stroke-width="2" stroke-linecap="round" stroke-linejoin="round" stroke-dasharray="0 0"/><rect x="0" y="0" width="335.26057529942887" height="10" fill="rgba(255,255,255,0.01)" stroke="rgba(255,255,255,0.01)" stroke-width="2" stroke-linecap="round" stroke-linejoin="round" stroke-dasharray="0 0"/></g><g transform="translate(912.7633176732218, 447.1862667181209) rotate(-19.85, 0, 0)" width="0" height="36"><text text-decoration="none" x="0" fill="#D4C6B2" font-size="10pt" font-family="lt_regular"  y="14.666666984558105"></text><text text-decoration="none" x="0" fill="#4b4b4b" font-size="10pt" font-family="noto_regular"  y="33.33333492279053"></text></g></g><g id="h3cSMP504gx"><g transform="translate(761.2553229352084 496.41879485522736) rotate(-160.6828613469749)"><path d="M 0,5 L 319.4982494392577,5" fill="rgb(255,255,255)" stroke="#D4C6B2" stroke-width="2" stroke-linecap="round" stroke-linejoin="round" stroke-dasharray="0 0"/><rect x="0" y="0" width="319.4982494392577" height="10" fill="rgba(255,255,255,0.01)" stroke="rgba(255,255,255,0.01)" stroke-width="2" stroke-linecap="round" stroke-linejoin="round" stroke-dasharray="0 0"/></g><g transform="translate(615.4616978188957, 429.4187819885747) rotate(-160.68, 0, 0)" width="0" height="36"><text text-decoration="none" x="0" fill="#D4C6B2" font-size="10pt" font-family="lt_regular"  y="14.666666984558105"></text><text text-decoration="none" x="0" fill="#4b4b4b" font-size="10pt" font-family="noto_regular"  y="33.33333492279053"></text></g></g><g id="Qd2O2TSZxix"><g transform="translate(750 280)"><path d="M 9.99999999999998,0 L 0,10.000000000000012 L 9.99999999999998,20.000000000000025 L 19.99999999999996,10.000000000000012 L 9.99999999999998,0 Z" fill="rgb(8,65,95)" stroke="#08415f" stroke-width="2" stroke-linecap="round" stroke-linejoin="round" stroke-dasharray="0 0"/></g></g><g id="loZ1NVgNA3d"><g transform="translate(630.0000000000001 430)"><path d="M 9.999999999999988,0 L 0,9.999999999999988 L 9.999999999999988,19.999999999999975 L 19.999999999999975,9.999999999999988 L 9.999999999999988,0 Z" fill="rgb(8,65,95)" stroke="#08415f" stroke-width="2" stroke-linecap="round" stroke-linejoin="round" stroke-dasharray="0 0"/></g></g><g id="Iim2zQDEfmE"><g transform="translate(660 450)"><path d="M 9.999999999999988,0 L 0,9.999999999999984 L 9.999999999999988,19.999999999999968 L 19.999999999999975,9.999999999999984 L 9.999999999999988,0 Z" fill="rgb(192,35,44)" stroke="#c0232c" stroke-width="2" stroke-linecap="round" stroke-linejoin="round" stroke-dasharray="0 0"/></g></g><g id="Vy0rqUnU1rD"><g transform="translate(690 460.00000000000006)"><path d="M 9.999999999999975,0 L 0,9.999999999999988 L 9.999999999999975,19.999999999999975 L 19.99999999999995,9.999999999999988 L 9.999999999999975,0 Z" fill="rgb(89,88,87)" stroke="#595857" stroke-width="2" stroke-linecap="round" stroke-linejoin="round" stroke-dasharray="0 0"/></g></g><g id="ZQU8gexSLeL"><g transform="translate(700 550)"><path d="M 10.000000000000028,0 L 0,9.999999999999984 L 10.000000000000028,19.999999999999968 L 20.000000000000057,9.999999999999984 L 10.000000000000028,0 Z" fill="rgb(89,88,87)" stroke="#595857" stroke-width="2" stroke-linecap="round" stroke-linejoin="round" stroke-dasharray="0 0"/></g></g><g id="bEbzXziLGhF"><g transform="translate(680 570)"><path d="M 9.999999999999988,0 L 0,9.999999999999988 L 9.999999999999988,19.999999999999975 L 19.999999999999975,9.999999999999988 L 9.999999999999988,0 Z" fill="rgb(192,35,44)" stroke="#c0232c" stroke-width="2" stroke-linecap="round" stroke-linejoin="round" stroke-dasharray="0 0"/></g></g><g id="f54TRdr0M8z"><g transform="translate(640 639.9999999999999)"><path d="M 9.999999999999988,0 L 0,9.999999999999988 L 9.999999999999988,19.999999999999975 L 19.999999999999975,9.999999999999988 L 9.999999999999988,0 Z" fill="rgb(8,65,95)" stroke="#08415f" stroke-width="2" stroke-linecap="round" stroke-linejoin="round" stroke-dasharray="0 0"/></g></g><g id="p5DAze8ibks"><g transform="translate(800.0000000000002 550.0000000000001)"><path d="M 9.999999999999988,0 L 0,9.999999999999988 L 9.999999999999988,19.999999999999975 L 19.999999999999975,9.999999999999988 L 9.999999999999988,0 Z" fill="rgb(89,88,87)" stroke="#595857" stroke-width="2" stroke-linecap="round" stroke-linejoin="round" stroke-dasharray="0 0"/></g></g><g id="fvKeP7POtjM"><g transform="translate(790 530)"><path d="M 9.999999999999988,0 L 0,9.999999999999988 L 9.999999999999988,19.999999999999975 L 19.999999999999975,9.999999999999988 L 9.999999999999988,0 Z" fill="rgb(192,35,44)" stroke="#c0232c" stroke-width="2" stroke-linecap="round" stroke-linejoin="round" stroke-dasharray="0 0"/></g></g><g id="oG4bX8ixW9e"><g transform="translate(840 600)"><path d="M 10.000000000000183,0 L 0,9.999999999999988 L 10.000000000000183,19.999999999999975 L 20.000000000000366,9.999999999999988 L 10.000000000000183,0 Z" fill="rgb(8,65,95)" stroke="#08415f" stroke-width="2" stroke-linecap="round" stroke-linejoin="round" stroke-dasharray="0 0"/></g></g><g id="jTfacmCtMPO"><g transform="translate(840.0000000000002 450)"><path d="M 9.999999999999991,0 L 0,10.000000000000016 L 9.999999999999991,20.000000000000032 L 19.999999999999982,10.000000000000016 L 9.999999999999991,0 Z" fill="rgb(89,88,87)" stroke="#595857" stroke-width="2" stroke-linecap="round" stroke-linejoin="round" stroke-dasharray="0 0"/></g></g><g id="tCkVCrKeSSc"><g transform="translate(870 440)"><path d="M 10.000000000000073,0 L 0,9.999999999999993 L 10.000000000000073,19.999999999999986 L 20.000000000000146,9.999999999999993 L 10.000000000000073,0 Z" fill="rgb(192,35,44)" stroke="#c0232c" stroke-width="2" stroke-linecap="round" stroke-linejoin="round" stroke-dasharray="0 0"/></g></g><g id="kM8SVnynIm0"><g transform="translate(890 429.99999999999994)"><path d="M 10.00000000000007,0 L 0,9.999999999999996 L 10.00000000000007,19.999999999999993 L 20.00000000000014,9.999999999999996 L 10.00000000000007,0 Z" fill="rgb(8,65,95)" stroke="#08415f" stroke-width="2" stroke-linecap="round" stroke-linejoin="round" stroke-dasharray="0 0"/></g></g><g id="wcUM8nYw2H1"><g transform="translate(750 340)"><path d="M 9.999999999999991,0 L 0,9.999999999999991 L 9.999999999999991,19.999999999999982 L 19.999999999999982,9.999999999999991 L 9.999999999999991,0 Z" fill="rgb(192,35,44)" stroke="#c0232c" stroke-width="2" stroke-linecap="round" stroke-linejoin="round" stroke-dasharray="0 0"/></g></g><g id="7s6Efs4Z7eo"><g transform="translate(740 410)"><path d="M 9.999999999999998,0 L 0,9.999999999999998 L 9.999999999999998,19.999999999999996 L 19.999999999999996,9.999999999999998 L 9.999999999999998,0 Z" fill="rgb(89,88,87)" stroke="#595857" stroke-width="2" stroke-linecap="round" stroke-linejoin="round" stroke-dasharray="0 0"/></g></g><g id="4s2BvAL1A1h"><g><path d="M 750,290 L 640,430" fill="none" stroke="#354860" stroke-width="2" stroke-linecap="round" stroke-linejoin="round" stroke-dasharray="0 0"/><path d="M 640,430 L 649.8936917693759,426.71492315123953 L 640.851030872918,419.60997530402267 Z" fill="rgb(53,72,96)" stroke="#354860" stroke-width="2" stroke-linecap="round" stroke-linejoin="round"/></g></g><g id="XCp5ir9IZGO"><g><path d="M 640,450 L 650,640" fill="none" stroke="#354860" stroke-width="2" stroke-linecap="round" stroke-linejoin="round" stroke-dasharray="0 0"/><path d="M 650,640 L 655.2850191871596,631.0141534110005 L 643.8009141498358,631.6185799919123 Z" fill="rgb(53,72,96)" stroke="#354860" stroke-width="2" stroke-linecap="round" stroke-linejoin="round"/></g></g><g id="JGNcVuXaftd"><g><path d="M 750,350 L 670,450" fill="none" stroke="#C43731" stroke-width="2" stroke-linecap="round" stroke-linejoin="round" stroke-dasharray="0 0"/><path d="M 670,450 L 679.9221265025967,446.80183296306376 L 670.9421351940019,439.6178399161879 Z" fill="rgb(196,55,49)" stroke="#C43731" stroke-width="2" stroke-linecap="round" stroke-linejoin="round"/></g></g><g id="z1So9UF6Pp9"><g><path d="M 670,470 L 680,580" fill="none" stroke="#C43731" stroke-width="2" stroke-linecap="round" stroke-linejoin="round" stroke-dasharray="0 0"/><path d="M 680,580 L 684.9391185802979,570.8194785344494 L 673.4863467059192,571.8606396139384 Z" fill="rgb(196,55,49)" stroke="#C43731" stroke-width="2" stroke-linecap="round" stroke-linejoin="round"/></g></g><g id="DQS7l3M3oK3"><g><path d="M 770,350 L 880,440" fill="none" stroke="#C43731" stroke-width="2" stroke-linecap="round" stroke-linejoin="round" stroke-dasharray="0 0"/><path d="M 880,440 L 876.9110538226461,430.04332996212645 L 869.6288192346875,438.9438389029646 Z" fill="rgb(196,55,49)" stroke="#C43731" stroke-width="2" stroke-linecap="round" stroke-linejoin="round"/></g></g><g id="oDVgXqINJGf"><g><path d="M 700,580 L 800,550" fill="none" stroke="#C43731" stroke-width="2" stroke-linecap="round" stroke-linejoin="round" stroke-dasharray="0 0"/><path d="M 800,550 L 790.0188254386792,546.9911761257727 L 793.3233261226922,558.006178405816 Z" fill="rgb(196,55,49)" stroke="#C43731" stroke-width="2" stroke-linecap="round" stroke-linejoin="round"/></g></g><g id="oLBj1gE4ok3"><g><path d="M 810,540 L 880,460" fill="none" stroke="#C43731" stroke-width="2" stroke-linecap="round" stroke-linejoin="round" stroke-dasharray="0 0"/><path d="M 880,460 L 869.9465569804918,462.7577436761202 L 878.6011889696209,470.33054666660814 Z" fill="rgb(196,55,49)" stroke="#C43731" stroke-width="2" stroke-linecap="round" stroke-linejoin="round"/></g></g><g id="ilSr40bNyrL"><g><path d="M 740,420 L 700,460" fill="none" stroke="#354860" stroke-width="2" stroke-linecap="round" stroke-linejoin="round" stroke-dasharray="0 0"/><path d="M 700,460 L 710.214618610836,457.9171093728092 L 702.0828906271907,449.7853813891639 Z" fill="rgb(53,72,96)" stroke="#354860" stroke-width="2" stroke-linecap="round" stroke-linejoin="round"/></g></g><g id="38WVUoueJ6P"><g><path d="M 700,480 L 710,550" fill="none" stroke="#1a1a1a" stroke-width="2" stroke-linecap="round" stroke-linejoin="round" stroke-dasharray="0 0"/><path d="M 710,550 L 714.462458664749,540.5785707350167 L 703.0780394876456,542.2049163317457 Z" fill="rgb(26,26,26)" stroke="#1a1a1a" stroke-width="2" stroke-linecap="round" stroke-linejoin="round"/></g></g><g id="glABDoSil4H"><g><path d="M 720,560 L 800,560" fill="none" stroke="#1a1a1a" stroke-width="2" stroke-linecap="round" stroke-linejoin="round" stroke-dasharray="0 0"/><path d="M 800,560 L 791.304347826087,554.25 L 791.304347826087,565.75 Z" fill="rgb(26,26,26)" stroke="#1a1a1a" stroke-width="2" stroke-linecap="round" stroke-linejoin="round"/></g></g><g id="dNRCDwmGPyU"><g><path d="M 820,560 L 850,470" fill="none" stroke="#1a1a1a" stroke-width="2" stroke-linecap="round" stroke-linejoin="round" stroke-dasharray="0 0"/><path d="M 850,470 L 841.7952643751936,476.43111032845115 L 852.7051223027745,480.0677296376448 Z" fill="rgb(26,26,26)" stroke="#1a1a1a" stroke-width="2" stroke-linecap="round" stroke-linejoin="round"/></g></g><g id="5B3CqgvwLvS"><g><path d="M 840,460 L 760,420" fill="none" stroke="#1a1a1a" stroke-width="2" stroke-linecap="round" stroke-linejoin="round" stroke-dasharray="0 0"/><path d="M 760,420 L 765.2061495737006,429.0317702221622 L 770.3491059219501,418.74585752566315 Z" fill="rgb(26,26,26)" stroke="#1a1a1a" stroke-width="2" stroke-linecap="round" stroke-linejoin="round"/></g></g><g id="dOmOtsfDoia"><g><path d="M 660,650 L 840,610" fill="none" stroke="#354860" stroke-width="2" stroke-linecap="round" stroke-linejoin="round" stroke-dasharray="0 0"/><path d="M 840,610 L 830.2640667355083,606.273276211061 L 832.758767000423,617.4994274031765 Z" fill="rgb(53,72,96)" stroke="#354860" stroke-width="2" stroke-linecap="round" stroke-linejoin="round"/></g></g><g id="y9ihZg9IGvE"><g><path d="M 850,600 L 900,450" fill="none" stroke="#354860" stroke-width="2" stroke-linecap="round" stroke-linejoin="round" stroke-dasharray="0 0"/><path d="M 900,450 L 891.7952643751936,456.43111032845115 L 902.7051223027745,460.0677296376448 Z" fill="rgb(53,72,96)" stroke="#354860" stroke-width="2" stroke-linecap="round" stroke-linejoin="round"/></g></g><g id="ik6QraMnS3l"><g><path d="M 900,430 L 770,290" fill="none" stroke="#354860" stroke-width="2" stroke-linecap="round" stroke-linejoin="round" stroke-dasharray="0 0"/><path d="M 770,290 L 771.7034035046033,300.2847111398514 L 780.1305286583058,292.4595234971277 Z" fill="rgb(53,72,96)" stroke="#354860" stroke-width="2" stroke-linecap="round" stroke-linejoin="round"/></g></g><g id="szA7wdnpWSp"><g transform="translate(1010 140)"><path d="M 10.000000000000044,0 L 0,9.999999999999991 L 10.000000000000044,19.999999999999982 L 20.00000000000009,9.999999999999991 L 10.000000000000044,0 Z" fill="rgb(89,88,87)" stroke="#595857" stroke-width="2" stroke-linecap="round" stroke-linejoin="round" stroke-dasharray="0 0"/></g></g><g id="it4y8CdfLm2"><g transform="translate(1010 189.99999999999994)"><path d="M 10.000000000000005,0 L 0,9.999999999999991 L 10.000000000000005,19.999999999999982 L 20.00000000000001,9.999999999999991 L 10.000000000000005,0 Z" fill="rgb(192,35,44)" stroke="#c0232c" stroke-width="2" stroke-linecap="round" stroke-linejoin="round" stroke-dasharray="0 0"/></g></g><g id="tIZH5yXXXDY"><g transform="translate(1010 239.99999999999994)"><path d="M 9.99999999999999,0 L 0,10.000000000000036 L 9.99999999999999,20.00000000000007 L 19.99999999999998,10.000000000000036 L 9.99999999999999,0 Z" fill="rgb(8,65,95)" stroke="#08415f" stroke-width="2" stroke-linecap="round" stroke-linejoin="round" stroke-dasharray="0 0"/></g></g><g id="E0RP3HUMITN"><g transform="translate(529.999799803807 49.999999999999204)"><rect x="0" y="0" width="440.00019942139386" height="99.99999999999997" fill="rgba(255,255,255,0.01)" stroke="rgba(255,255,255,0.01)"  stroke-dasharray="0 0"/></g><g transform="translate(539.999799803807, 59.999999999999204) rotate(0, 0, 0)" width="396.3" height="29.34"><text text-decoration="none" x="0" fill="rgb(75, 75, 75)" font-weight="bold" font-size="16pt" font-family="lt_regular"  y="23.33333396911621">TABLA&#160;</text><text text-decoration="none" x="71.6666693687439" fill="rgb(75, 75, 75)" font-weight="bold" font-size="16pt" font-family="lt_regular"  y="23.33333396911621">DE&#160;</text><text text-decoration="none" x="105.65625286102295" fill="rgb(75, 75, 75)" font-weight="bold" font-size="16pt" font-family="lt_regular"  y="23.33333396911621">RADAR&#160;</text><text text-decoration="none" x="182.9375081062317" fill="rgb(75, 75, 75)" font-weight="bold" font-size="16pt" font-family="lt_regular"  y="23.33333396911621">para&#160;</text><text text-decoration="none" x="229.2916774749756" fill="rgb(75, 75, 75)" font-weight="bold" font-size="16pt" font-family="lt_regular"  y="23.33333396911621">PRODUCTO&#160;</text><text text-decoration="none" x="353.81251096725464" fill="rgb(75, 75, 75)" font-weight="bold" font-size="16pt" font-family="lt_regular"  y="23.33333396911621">ABC</text><text text-decoration="none" x="396.29167890548706" fill="#4b4b4b" font-size="10pt" font-family="noto_regular"  y="23.33333396911621"></text></g></g><g id="sXwI0Dt2eW4"><g transform="translate(410 340)"><rect x="0" y="0" width="250" height="100" fill="rgba(255,255,255,0.01)" stroke="rgba(255,255,255,0.01)"  stroke-dasharray="0 0"/></g><g transform="translate(420, 350) rotate(0, 0, 0)" width="15.53" height="33.34"><text text-decoration="none" x="0" fill="#4b4b4b" font-size="18pt" font-family="lt_regular"  y="26">B</text><text text-decoration="none" x="15.520833969116211" fill="#4b4b4b" font-size="10pt" font-family="noto_regular"  y="26"></text></g></g><g id="8zFs4IssbsD"><g transform="translate(730 120)"><rect x="0" y="0" width="250" height="100" fill="rgba(255,255,255,0.01)" stroke="rgba(255,255,255,0.01)"  stroke-dasharray="0 0"/></g><g transform="translate(740, 130) rotate(0, 0, 0)" width="16.25" height="33.34"><text text-decoration="none" x="0" fill="#4b4b4b" font-size="18pt" font-family="lt_regular"  y="26">A</text><text text-decoration="none" x="16.25" fill="#4b4b4b" font-size="10pt" font-family="noto_regular"  y="26"></text></g></g><g id="qOUr5Kp7nnP"><g transform="translate(1040 230)"><rect x="0" y="0" width="250" height="46" fill="rgba(255,255,255,0.01)" stroke="rgba(255,255,255,0.01)"  stroke-dasharray="0 0"/></g><g transform="translate(1050, 240) rotate(0, 0, 0)" width="70.41" height="25.34"><text text-decoration="none" x="0" fill="#4b4b4b" font-size="14pt" font-family="lt_regular"  y="20">Ganador</text><text text-decoration="none" x="70.40625" fill="#4b4b4b" font-size="10pt" font-family="noto_regular"  y="20"></text></g></g><g id="CjHfpjlHrdV"><g transform="translate(1040 130.00000000000006)"><rect x="0" y="0" width="250" height="46" fill="rgba(255,255,255,0.01)" stroke="rgba(255,255,255,0.01)"  stroke-dasharray="0 0"/></g><g transform="translate(1050, 140.00000000000006) rotate(0, 0, 0)" width="102.38" height="25.34"><text text-decoration="none" x="0" fill="rgb(75, 75, 75)" font-size="14pt" font-family="lt_regular"  y="20">Presupuesto</text><text text-decoration="none" x="102.375" fill="#4b4b4b" font-size="10pt" font-family="noto_regular"  y="20"></text></g></g><g id="zqgn122j5vf"><g transform="translate(1050 350)"><rect x="0" y="0" width="250" height="100" fill="rgba(255,255,255,0.01)" stroke="rgba(255,255,255,0.01)"  stroke-dasharray="0 0"/></g><g transform="translate(1060, 360) rotate(0, 0, 0)" width="29" height="33.34"><text text-decoration="none" x="0" fill="#4b4b4b" font-size="18pt" font-family="lt_regular"  y="26">MI</text><text text-decoration="none" x="29" fill="#4b4b4b" font-size="10pt" font-family="noto_regular"  y="26"></text></g></g><g id="pPZTnbHnIKY"><g transform="translate(1040 179.99999999999994)"><rect x="0" y="0" width="250" height="46" fill="rgba(255,255,255,0.01)" stroke="rgba(255,255,255,0.01)"  stroke-dasharray="0 0"/></g><g transform="translate(1050, 189.99999999999994) rotate(0, 0, 0)" width="83.37" height="25.34"><text text-decoration="none" x="0" fill="#4b4b4b" font-size="14pt" font-family="lt_regular"  y="20">Gasto&#160;</text><text text-decoration="none" x="53.04166793823242" fill="#4b4b4b" font-size="14pt" font-family="lt_regular"  y="20">real</text><text text-decoration="none" x="83.36458587646484" fill="#4b4b4b" font-size="10pt" font-family="noto_regular"  y="20"></text></g></g><g id="qGH0PV5Olja"><g transform="translate(570 740)"><rect x="0" y="0" width="250" height="100" fill="rgba(255,255,255,0.01)" stroke="rgba(255,255,255,0.01)"  stroke-dasharray="0 0"/></g><g transform="translate(580, 750) rotate(0, 0, 0)" width="16.04" height="33.34"><text text-decoration="none" x="0" fill="#4b4b4b" font-size="18pt" font-family="lt_regular"  y="26">C</text><text text-decoration="none" x="16.03125" fill="#4b4b4b" font-size="10pt" font-family="noto_regular"  y="26"></text></g></g><g id="PxxLKcfVHl3"><g transform="translate(940 730)"><rect x="0" y="0" width="250" height="100" fill="rgba(255,255,255,0.01)" stroke="rgba(255,255,255,0.01)"  stroke-dasharray="0 0"/></g><g transform="translate(950, 740) rotate(0, 0, 0)" width="18.25" height="33.34"><text text-decoration="none" x="0" fill="rgb(75, 75, 75)" font-size="18pt" font-family="lt_regular"  y="26">D</text><text text-decoration="none" x="18.25" fill="#4b4b4b" font-size="10pt" font-family="noto_regular"  y="26"></text></g></g></svg>